<?xml version="1.0" encoding="iso-8859-1"?>
<!-- Generator: Adobe Illustrator 19.0.0, SVG Export Plug-In . SVG Version: 6.00 Build 0)  -->
<svg version="1.1" id="Layer_1" xmlns="http://www.w3.org/2000/svg" xmlns:xlink="http://www.w3.org/1999/xlink" x="0px" y="0px"
	 viewBox="0 0 512 512" style="enable-background:new 0 0 512 512;" xml:space="preserve">
<path style="fill:#333E48;" d="M96.687,400.1c-12.396,0-22.408-5.493-28.955-15.887c-8.547-13.569-8.723-31.58-8.398-39.903
	c0.529-13.504,3.466-27.037,7.854-36.2l14.778,7.077c-6.669,13.927-9.763,45.382-0.37,60.293c3.538,5.619,8.334,8.235,15.091,8.235
	C96.687,383.715,96.687,400.1,96.687,400.1z"/>
<path style="opacity:0.3;enable-background:new    ;" d="M67.279,308.018c-2.631,5.495-4.735,12.566-6.116,20.255
	c3.65,2.675,8.719,4.751,15.697,5.682c1.092-7.414,2.938-14.144,5.197-18.862L67.279,308.018z"/>
<path style="fill:#00AD68;" d="M96.687,270.155c-8.177,0-34.83,19.685-34.83,39.069c0,19.385,26.651,15.143,34.83,15.143V270.155z"
	/>
<path style="opacity:0.2;enable-background:new    ;" d="M96.687,270.155v54.212c-3.364,0-9.857,0.714-16.333,0.209v-45.81
	C86.83,273.492,93.323,270.155,96.687,270.155z"/>
<path style="fill:#333E48;" d="M236.117,400.1c12.396,0,22.408-5.493,28.955-15.887c8.547-13.569,8.724-31.58,8.398-39.903
	c-0.529-13.504-3.466-27.037-7.853-36.2l-14.778,7.077c6.669,13.927,9.764,45.382,0.37,60.293c-3.538,5.619-8.334,8.235-15.09,8.235
	V400.1H236.117z"/>
<path style="opacity:0.3;enable-background:new    ;" d="M265.525,308.018c2.631,5.495,4.735,12.566,6.116,20.255
	c-3.65,2.675-8.719,4.751-15.697,5.682c-1.092-7.414-2.938-14.144-5.197-18.862L265.525,308.018z"/>
<path style="fill:#FF5959;" d="M236.117,270.155c8.177,0,34.83,19.685,34.83,39.069c0,19.385-26.651,15.143-34.83,15.143V270.155z"
	/>
<path style="opacity:0.2;enable-background:new    ;" d="M236.117,270.155v54.212c3.364,0,9.856,0.714,16.333,0.209v-45.81
	C245.974,273.492,239.481,270.155,236.117,270.155z"/>
<path style="fill:#00AD68;" d="M489.274,34.147c0-6.008-4.916-10.923-10.923-10.923H33.278c-6.008,0-10.923,4.916-10.923,10.923
	v96.037c0,6.008,4.916,10.923,10.923,10.923H478.35c6.008,0,10.923-4.916,10.923-10.923V34.147z"/>
<path style="fill:#333E48;" d="M241.67,464.158V257.724c0-6.663-5.452-12.116-12.115-12.116H103.247
	c-6.663,0-12.114,5.453-12.114,12.116v206.434H241.67z"/>
<rect x="91.135" y="370.044" style="fill:#D1D3D3;" width="150.536" height="94.117"/>
<g>
	<rect x="120.027" y="421.493" style="fill:#A4A9AD;" width="17.478" height="42.667"/>
	<rect x="195.301" y="421.493" style="fill:#A4A9AD;" width="17.478" height="42.667"/>
</g>
<rect x="121.36" y="281.203" style="fill:#FFFFFF;" width="90.086" height="32.621"/>
<rect x="347.76" y="140.236" style="fill:#D1D3D3;" width="91.757" height="323.925"/>
<rect x="347.76" y="140.236" style="opacity:0.1;enable-background:new    ;" width="91.757" height="34.048"/>
<rect x="347.76" y="315.743" style="opacity:0.1;enable-background:new    ;" width="91.757" height="26.039"/>
<path style="fill:#A4A9AD;" d="M460.27,464.158V340.324c0-6.008-4.916-10.923-10.923-10.923H337.924
	c-6.008,0-10.923,4.916-10.923,10.923v123.834H460.27z"/>
<polygon style="fill:#FFB819;" points="178.048,23.223 119.105,23.223 52.989,141.107 111.932,141.107 "/>
<polygon style="fill:#F2D383;" points="236.99,23.223 178.048,23.223 111.932,141.107 170.875,141.107 "/>
<rect x="91.135" y="346.679" style="fill:#00AD68;" width="75.269" height="52.196"/>
<rect x="166.397" y="346.679" style="fill:#FF5959;" width="75.27" height="52.196"/>
<path style="fill:#FFB819;" d="M392,113.096c11.98,0,21.691-9.712,21.691-21.691S392,53.534,392,53.534s-21.69,25.892-21.69,37.872
	S380.02,113.096,392,113.096z"/>
<path style="fill:#333E48;" d="M512,484.365c0,2.426-1.984,4.412-4.412,4.412H4.412c-2.427,0-4.412-1.986-4.412-4.412v-15.792
	c0-2.428,1.985-4.414,4.412-4.414h503.176c2.428,0,4.412,1.986,4.412,4.414V484.365z"/>
<g>
	<path style="fill:#FFFFFF;" d="M143.214,377.191h-28.896c-4.526,0-8.193-3.667-8.193-8.193c0-4.526,3.667-8.193,8.193-8.193h28.896
		c4.526,0,8.193,3.667,8.193,8.193C151.407,373.524,147.74,377.191,143.214,377.191z"/>
	<path style="fill:#FFFFFF;" d="M218.485,377.191h-28.896c-4.526,0-8.193-3.667-8.193-8.193c0-4.526,3.667-8.193,8.193-8.193h28.896
		c4.526,0,8.193,3.667,8.193,8.193C226.678,373.524,223.009,377.191,218.485,377.191z"/>
</g>
<g>
	<circle style="fill:#D1D3D3;" cx="393.639" cy="359.426" r="7.646"/>
	<circle style="fill:#D1D3D3;" cx="355.953" cy="359.426" r="7.646"/>
	<circle style="fill:#D1D3D3;" cx="431.325" cy="359.426" r="7.646"/>
</g>
<g>
</g>
<g>
</g>
<g>
</g>
<g>
</g>
<g>
</g>
<g>
</g>
<g>
</g>
<g>
</g>
<g>
</g>
<g>
</g>
<g>
</g>
<g>
</g>
<g>
</g>
<g>
</g>
<g>
</g>
</svg>
