<?xml version="1.0" encoding="iso-8859-1"?>
<!-- Generator: Adobe Illustrator 19.0.0, SVG Export Plug-In . SVG Version: 6.00 Build 0)  -->
<svg version="1.1" id="Capa_1" xmlns="http://www.w3.org/2000/svg" xmlns:xlink="http://www.w3.org/1999/xlink" x="0px" y="0px"
	 viewBox="0 0 480 480" style="enable-background:new 0 0 480 480;" xml:space="preserve">
<g>
	<path style="fill:#E9A868;" d="M476,167.619H342.857v15.238H480v-11.238C480,169.41,478.209,167.619,476,167.619z"/>
	<path style="fill:#E9A868;" d="M297.143,167.619H194.476c-2.209,0-4,1.791-4,4v11.238h106.667V167.619z"/>
	<path style="fill:#BF515A;" d="M342.857,198.095h15.238h7.619h45.714h7.619h45.714h7.619H476c2.209,0,4-1.791,4-4v-11.238H342.857
		V198.095z"/>
	<path style="fill:#BF515A;" d="M251.428,198.095h7.619h38.095v-15.238H190.476v11.238c0,2.209,1.791,4,4,4h3.619h7.619H251.428z"/>
	<polygon style="fill:#84790F;" points="205.714,213.333 251.428,259.048 251.428,213.333 	"/>
	<path style="fill:#84790F;" d="M350.608,219.048c0.258-2.062,0.927-3.993,1.924-5.714h-9.674v5.714H350.608z"/>
	<path style="fill:#84790F;" d="M379.595,227.215l31.833,31.833v-45.714h-32.531c1.3,2.243,2.055,4.84,2.055,7.619
		C380.952,223.187,380.459,225.303,379.595,227.215z"/>
	<path style="fill:#84790F;" d="M261.103,213.333h-2.055l1.357,1.357C260.615,214.224,260.848,213.773,261.103,213.333z"/>
	<polygon style="fill:#84790F;" points="464.762,213.333 419.047,213.333 464.762,259.048 	"/>
	<path style="fill:#84790F;" d="M358.095,234.135c-4.028-2.334-6.884-6.451-7.488-11.278h-7.751v20.952l15.238,15.238V234.135z"/>
	<path style="fill:#84790F;" d="M289.392,219.048h7.751v-5.714h-9.674C288.466,215.055,289.134,216.985,289.392,219.048z"/>
	<path style="fill:#84790F;" d="M280.548,234.834l16.595,16.595v-28.571h-7.751C288.723,228.21,285.283,232.693,280.548,234.834z"/>
	<path style="fill:#F8E845;" d="M240,350.476v-72.19c0-2.209,1.791-4,4-4h7.428v-15.238l-45.714-45.714v144.762h26.667v-7.619H240z"
		/>
	<path style="fill:#F8E845;" d="M274.286,236.19c-8.416,0-15.238-6.822-15.238-15.238v53.333h26.476c2.209,0,4,1.791,4,4v72.19
		h7.619v-99.048l-16.595-16.595C278.636,235.698,276.52,236.19,274.286,236.19z"/>
	<path style="fill:#F8E845;" d="M259.047,213.333v7.619c0-2.235,0.493-4.35,1.357-6.262L259.047,213.333z"/>
	<path style="fill:#F8E845;" d="M354.476,274.286h3.619v-15.238l-15.238-15.238v106.667h7.619v-72.19
		C350.476,276.077,352.267,274.286,354.476,274.286z"/>
	<path style="fill:#F8E845;" d="M379.595,227.215c-2.39,5.289-7.7,8.976-13.881,8.976v38.095H396c2.209,0,4,1.791,4,4v72.19h7.619
		v7.619h3.81v-99.048L379.595,227.215z"/>
	<polygon style="fill:#F8E845;" points="419.047,213.333 419.047,358.095 464.762,358.095 464.762,259.048 	"/>
	<path style="fill:#08AC00;" d="M358.095,259.048v15.238h7.619V236.19c-2.779,0-5.376-0.756-7.619-2.055V259.048z"/>
	<path style="fill:#08AC00;" d="M251.428,213.333v45.714v15.238h7.619v-53.333v-7.619h2.055c2.636-4.55,7.546-7.619,13.183-7.619
		c5.637,0,10.547,3.069,13.183,7.619h9.674v-15.238h-38.095h-7.619h-45.714h-7.619v15.238v144.762h7.619V213.333H251.428z"/>
	<path style="fill:#08AC00;" d="M419.047,198.095h-7.619h-45.714h-7.619h-15.238v15.238h9.674c2.636-4.55,7.546-7.619,13.183-7.619
		s10.547,3.069,13.183,7.619h32.531v45.714v99.048h7.619V213.333h45.714v45.714v99.048h7.619V213.333v-15.238h-7.619H419.047z"/>
	<path style="fill:#E9A868;" d="M7.619,131.524c0-1.105,0.896-2,2-2h41.714c1.104,0,2,0.895,2,2v5.619h297.143v-5.619
		c0-1.105,0.896-2,2-2h41.714c1.104,0,2,0.895,2,2v5.619h7.619v-11.238c0-2.209-1.791-4-4-4H4c-2.209,0-4,1.791-4,4v11.238h7.619
		V131.524z"/>
	<path style="fill:#BF515A;" d="M399.809,152.381c2.209,0,4-1.791,4-4v-11.238h-7.619v5.619c0,1.105-0.896,2-2,2h-41.714
		c-1.104,0-2-0.895-2-2v-5.619H53.333v5.619c0,1.105-0.896,2-2,2H9.619c-1.104,0-2-0.895-2-2v-5.619H0v11.238c0,2.209,1.791,4,4,4
		h64.571h45.714h182.857h45.714H399.809z"/>
	<path style="fill:#826E77;" d="M60.821,219.048c0.078,0.625,0.131,1.258,0.131,1.905s-0.053,1.279-0.131,1.905h7.75v-3.81H60.821z"
		/>
	<polygon style="fill:#695A69;" points="68.571,219.048 68.571,222.857 68.571,350.476 60.952,350.476 26.667,350.476 
		19.047,350.476 11.428,350.476 3.809,350.476 3.809,358.095 68.571,358.095 114.286,358.095 179.047,358.095 179.047,350.476 
		171.428,350.476 137.143,350.476 129.524,350.476 121.905,350.476 114.286,350.476 114.286,222.857 114.286,219.048 
		114.286,152.381 68.571,152.381 	"/>
	<path style="fill:#BF515A;" d="M129.524,304.762h7.619v45.714h34.286v-72.19c0-2.209-1.791-4-4-4h-41.524c-2.209,0-4,1.791-4,4
		v72.19h7.619V304.762z M129.524,281.905h34.286v15.238h-34.286V281.905z"/>
	<path style="fill:#FFFFFF;" d="M163.809,281.905h-34.286v15.238h34.286V281.905z M137.143,293.333h-3.81v-7.619h3.81V293.333z
		 M144.762,293.333h-3.81v-7.619h3.81V293.333z M152.381,293.333h-3.81v-7.619h3.81V293.333z M160,293.333h-3.81v-7.619H160V293.333
		z"/>
	<rect x="129.524" y="304.762" style="fill:#944851;" width="7.619" height="45.714"/>
	<rect x="133.333" y="285.714" style="fill:#944851;" width="3.81" height="7.619"/>
	<rect x="140.952" y="285.714" style="fill:#944851;" width="3.81" height="7.619"/>
	<rect x="148.571" y="285.714" style="fill:#944851;" width="3.81" height="7.619"/>
	<rect x="156.19" y="285.714" style="fill:#944851;" width="3.81" height="7.619"/>
	<path style="fill:#BF515A;" d="M19.047,304.762h7.619v45.714h34.286v-72.19c0-2.209-1.791-4-4-4H15.428c-2.209,0-4,1.791-4,4v72.19
		h7.619V304.762z M19.047,281.905h34.286v15.238H19.047V281.905z"/>
	<path style="fill:#FFFFFF;" d="M53.333,281.905H19.047v15.238h34.286V281.905z M26.667,293.333h-3.81v-7.619h3.81V293.333z
		 M34.286,293.333h-3.81v-7.619h3.81V293.333z M41.905,293.333h-3.81v-7.619h3.81V293.333z M49.524,293.333h-3.81v-7.619h3.81
		V293.333z"/>
	<rect x="19.047" y="304.762" style="fill:#944851;" width="7.619" height="45.714"/>
	<rect x="22.857" y="285.714" style="fill:#944851;" width="3.81" height="7.619"/>
	<rect x="30.476" y="285.714" style="fill:#944851;" width="3.81" height="7.619"/>
	<rect x="38.095" y="285.714" style="fill:#944851;" width="3.81" height="7.619"/>
	<rect x="45.714" y="285.714" style="fill:#944851;" width="3.81" height="7.619"/>
	<path style="fill:#BF515A;" d="M60.821,219.048c-0.939-7.515-7.337-13.333-15.107-13.333c-8.416,0-15.238,6.822-15.238,15.238
		s6.822,15.238,15.238,15.238c7.769,0,14.167-5.819,15.107-13.333c0.078-0.625,0.131-1.258,0.131-1.905
		S60.899,219.673,60.821,219.048z M45.714,228.571c-4.208,0-7.619-3.411-7.619-7.619s3.411-7.619,7.619-7.619
		c4.208,0,7.619,3.411,7.619,7.619S49.922,228.571,45.714,228.571z"/>
	<circle style="fill:#E9A868;" cx="45.714" cy="220.952" r="7.619"/>
	<path style="fill:#826E77;" d="M122.036,222.857c-0.078-0.625-0.131-1.258-0.131-1.905s0.053-1.279,0.131-1.905h-7.75v3.81H122.036
		z"/>
	<path style="fill:#BF515A;" d="M122.036,222.857c0.939,7.515,7.337,13.333,15.107,13.333c8.416,0,15.238-6.822,15.238-15.238
		s-6.822-15.238-15.238-15.238c-7.769,0-14.167,5.819-15.107,13.333c-0.078,0.625-0.131,1.258-0.131,1.905
		S121.958,222.232,122.036,222.857z M137.143,213.333c4.208,0,7.619,3.411,7.619,7.619s-3.411,7.619-7.619,7.619
		c-4.208,0-7.619-3.411-7.619-7.619S132.935,213.333,137.143,213.333z"/>
	<circle style="fill:#E9A868;" cx="137.143" cy="220.952" r="7.619"/>
	<path style="fill:#826E77;" d="M289.524,220.952c0,0.647-0.053,1.279-0.132,1.905h7.751v-3.81h-7.751
		C289.47,219.673,289.524,220.306,289.524,220.952z"/>
	<polygon style="fill:#695A69;" points="400,350.476 365.714,350.476 358.095,350.476 350.476,350.476 342.857,350.476 
		342.857,243.81 342.857,222.857 342.857,219.048 342.857,213.333 342.857,198.095 342.857,182.857 342.857,167.619 
		342.857,152.381 297.143,152.381 297.143,167.619 297.143,182.857 297.143,198.095 297.143,213.333 297.143,219.048 
		297.143,222.857 297.143,251.429 297.143,350.476 289.524,350.476 255.238,350.476 247.619,350.476 240,350.476 232.381,350.476 
		232.381,358.095 251.428,358.095 259.047,358.095 297.143,358.095 304.762,358.095 312.381,358.095 342.857,358.095 
		358.095,358.095 365.714,358.095 407.619,358.095 407.619,350.476 	"/>
	<path style="fill:#BF515A;" d="M354.476,274.286c-2.209,0-4,1.791-4,4v72.19h7.619v-45.714h7.619v45.714H400v-72.19
		c0-2.209-1.791-4-4-4h-30.286h-7.619H354.476z M392.381,281.905v15.238h-34.286v-15.238H392.381z"/>
	<path style="fill:#FFFFFF;" d="M358.095,297.143h34.286v-15.238h-34.286V297.143z M384.762,285.714h3.81v7.619h-3.81V285.714z
		 M377.143,285.714h3.809v7.619h-3.809V285.714z M369.524,285.714h3.81v7.619h-3.81V285.714z M361.905,285.714h3.809v7.619h-3.809
		V285.714z"/>
	<rect x="358.095" y="304.762" style="fill:#944851;" width="7.619" height="45.714"/>
	<rect x="361.905" y="285.714" style="fill:#944851;" width="3.809" height="7.619"/>
	<rect x="369.524" y="285.714" style="fill:#944851;" width="3.81" height="7.619"/>
	<rect x="377.143" y="285.714" style="fill:#944851;" width="3.809" height="7.619"/>
	<rect x="384.762" y="285.714" style="fill:#944851;" width="3.81" height="7.619"/>
	<path style="fill:#BF515A;" d="M285.524,274.286h-26.476h-7.619H244c-2.209,0-4,1.791-4,4v72.19h7.619v-45.714h7.619v45.714h34.286
		v-72.19C289.524,276.077,287.733,274.286,285.524,274.286z M281.905,297.143h-34.286v-15.238h34.286V297.143z"/>
	<path style="fill:#FFFFFF;" d="M247.619,281.905v15.238h34.286v-15.238H247.619z M255.238,293.333h-3.81v-7.619h3.81V293.333z
		 M274.286,285.714h3.81v7.619h-3.81V285.714z M266.667,285.714h3.81v7.619h-3.81V285.714z M262.857,293.333h-3.81v-7.619h3.81
		V293.333z"/>
	<rect x="247.619" y="304.762" style="fill:#944851;" width="7.619" height="45.714"/>
	<rect x="251.428" y="285.714" style="fill:#944851;" width="3.81" height="7.619"/>
	<rect x="259.047" y="285.714" style="fill:#944851;" width="3.81" height="7.619"/>
	<rect x="266.667" y="285.714" style="fill:#944851;" width="3.81" height="7.619"/>
	<rect x="274.286" y="285.714" style="fill:#944851;" width="3.81" height="7.619"/>
	<path style="fill:#BF515A;" d="M274.286,236.19c2.235,0,4.35-0.493,6.262-1.357c4.736-2.14,8.175-6.623,8.844-11.977
		c0.078-0.625,0.132-1.258,0.132-1.905s-0.053-1.279-0.132-1.905c-0.258-2.062-0.927-3.993-1.924-5.714
		c-2.636-4.55-7.546-7.619-13.183-7.619c-5.637,0-10.547,3.069-13.183,7.619c-0.255,0.439-0.488,0.891-0.698,1.357
		c-0.864,1.912-1.357,4.028-1.357,6.262C259.047,229.368,265.87,236.19,274.286,236.19z M274.286,213.333
		c4.208,0,7.619,3.411,7.619,7.619s-3.411,7.619-7.619,7.619c-4.208,0-7.619-3.411-7.619-7.619S270.078,213.333,274.286,213.333z"/>
	<circle style="fill:#E9A868;" cx="274.286" cy="220.952" r="7.619"/>
	<path style="fill:#826E77;" d="M350.476,220.952c0-0.647,0.053-1.279,0.132-1.905h-7.751v3.81h7.751
		C350.53,222.232,350.476,221.599,350.476,220.952z"/>
	<path style="fill:#BF515A;" d="M350.476,220.952c0,0.647,0.053,1.279,0.132,1.905c0.603,4.827,3.459,8.945,7.488,11.278
		c2.243,1.299,4.84,2.055,7.619,2.055c6.181,0,11.491-3.687,13.881-8.976c0.864-1.912,1.357-4.028,1.357-6.262
		c0-2.779-0.756-5.376-2.055-7.619c-2.636-4.55-7.546-7.619-13.183-7.619s-10.547,3.069-13.183,7.619
		c-0.997,1.721-1.666,3.652-1.924,5.714C350.53,219.673,350.476,220.306,350.476,220.952z M373.333,220.952
		c0,4.208-3.411,7.619-7.619,7.619c-4.208,0-7.619-3.411-7.619-7.619s3.411-7.619,7.619-7.619
		C369.922,213.333,373.333,216.745,373.333,220.952z"/>
	<circle style="fill:#E9A868;" cx="365.714" cy="220.952" r="7.619"/>
	<path style="fill:#FFFFFF;" d="M51.333,129.524H9.619c-1.104,0-2,0.895-2,2v5.619v5.619c0,1.105,0.896,2,2,2h41.714
		c1.104,0,2-0.895,2-2v-5.619v-5.619C53.333,130.419,52.438,129.524,51.333,129.524z"/>
	<path style="fill:#FFFFFF;" d="M394.19,129.524h-41.714c-1.104,0-2,0.895-2,2v5.619v5.619c0,1.105,0.896,2,2,2h41.714
		c1.104,0,2-0.895,2-2v-5.619v-5.619C396.19,130.419,395.295,129.524,394.19,129.524z"/>
</g>
<g>
</g>
<g>
</g>
<g>
</g>
<g>
</g>
<g>
</g>
<g>
</g>
<g>
</g>
<g>
</g>
<g>
</g>
<g>
</g>
<g>
</g>
<g>
</g>
<g>
</g>
<g>
</g>
<g>
</g>
</svg>
