<?xml version="1.0" encoding="iso-8859-1"?>
<!-- Generator: Adobe Illustrator 19.0.0, SVG Export Plug-In . SVG Version: 6.00 Build 0)  -->
<svg xmlns="http://www.w3.org/2000/svg" xmlns:xlink="http://www.w3.org/1999/xlink" version="1.1" id="Capa_1" x="0px" y="0px" viewBox="0 0 504.051 504.051" style="enable-background:new 0 0 504.051 504.051;" xml:space="preserve">
<g>
	<path style="fill:#FFE100;" d="M16.532,227.193l260.287,260.746c10.265,10.283,26.911,10.283,37.184,0l173.516-173.831   c10.273-10.283,10.273-26.967,0-37.249L227.241,16.113c-10.273-10.283-26.919-10.283-37.184,0L16.532,189.943   C6.267,200.226,6.267,216.91,16.532,227.193"/>
	<path style="fill:#FFA800;" d="M277.502,487.936c10.265,10.283,26.919,10.283,37.184,0L488.21,314.106   c10.265-10.283,10.265-26.958,0-37.249l-16.772-16.802c10.265,10.291,10.265,26.967,0,37.249L297.913,471.134   c-10.265,10.283-26.919,10.283-37.184,0L277.502,487.936z"/>
	<path style="fill:#FFFFFF;" d="M16.532,226.823c-10.265-10.283-10.265-26.967,0-37.249L190.057,15.743   c10.265-10.283,26.911-10.283,37.184,0l16.772,16.802c-10.273-10.283-26.919-10.283-37.184,0L33.304,206.375   c-10.265,10.283-10.265,26.967,0,37.249L16.532,226.823z"/>
	<path style="fill:#FDCC00;" d="M279.792,290.659c-36.312-0.773-65.554-30.075-66.334-66.442L208.879,8.424   c6.65,0.059,13.284,2.604,18.357,7.695l260.287,260.737c5.074,5.082,7.623,11.736,7.682,18.398L279.792,290.659z"/>
	<g>
		<path style="fill:#FFE100;" d="M126.236,50.405H25.603c-4.629,0-8.386-3.764-8.386-8.401s3.757-8.401,8.386-8.401h100.633    c4.629,0,8.386,3.764,8.386,8.401S130.865,50.405,126.236,50.405"/>
		<path style="fill:#FFE100;" d="M143.008,420.043H59.148c-4.629,0-8.386-3.764-8.386-8.401c0-4.637,3.757-8.401,8.386-8.401h83.861    c4.629,0,8.386,3.764,8.386,8.401C151.394,416.279,147.637,420.043,143.008,420.043"/>
		<path style="fill:#FFE100;" d="M201.711,478.849H17.217c-4.629,0-8.386-3.764-8.386-8.401c0-4.637,3.757-8.401,8.386-8.401    h184.494c4.629,0,8.386,3.764,8.386,8.401C210.097,475.085,206.34,478.849,201.711,478.849"/>
		<path style="fill:#FFE100;" d="M50.761,126.013H25.603c-4.629,0-8.386-3.764-8.386-8.401c0-4.637,3.757-8.401,8.386-8.401h25.158    c4.629,0,8.386,3.764,8.386,8.401C59.148,122.249,55.391,126.013,50.761,126.013"/>
	</g>
	<g>
		<path d="M217.492,19.144l4.361,204.889c0.671,31.974,26.206,57.546,58.116,58.226h0.008l204.52,4.36    c-0.78-1.386-1.753-2.671-2.902-3.814L221.308,22.059C220.159,20.9,218.876,19.925,217.492,19.144 M495.205,303.647h-0.185    l-215.405-4.587c-40.932-0.874-73.672-33.671-74.535-74.675L200.493,8.601c-0.05-2.268,0.822-4.469,2.415-6.082    c1.577-1.596,3.732-2.495,5.971-2.495h0.075c9.166,0.084,17.77,3.688,24.219,10.157l260.279,260.737    c6.449,6.46,10.047,15.071,10.139,24.253c0.017,2.268-0.881,4.452-2.499,6.057C499.524,302.782,497.402,303.647,495.205,303.647"/>
		<path d="M19.555,217.433c0.78,1.386,1.753,2.663,2.91,3.814l260.287,260.754c1.149,1.143,2.432,2.125,3.807,2.907l-3.95-185.785    l-2.994-0.067c-40.932-0.865-73.672-33.671-74.535-74.667l-0.067-2.999L19.555,217.433z M295.18,504.029h-0.084    c-9.158-0.084-17.753-3.688-24.202-10.148L10.607,233.135c-6.457-6.46-10.055-15.071-10.139-24.253    c-0.025-2.277,0.881-4.452,2.491-6.057c1.61-1.596,3.681-2.419,6.072-2.419l204.377,4.352c4.495,0.101,8.109,3.73,8.21,8.224    l0.235,11.056c0.671,31.965,26.206,57.546,58.116,58.218l11.036,0.235c4.487,0.101,8.109,3.722,8.21,8.224l4.352,204.737    c0.042,2.268-0.83,4.461-2.424,6.082C299.566,503.13,297.42,504.029,295.18,504.029L295.18,504.029z"/>
		<path d="M126.236,42.004H25.603c-4.629,0-8.386-3.764-8.386-8.401s3.757-8.401,8.386-8.401h100.633    c4.629,0,8.386,3.764,8.386,8.401S130.865,42.004,126.236,42.004"/>
		<path d="M143.008,411.642H59.148c-4.629,0-8.386-3.764-8.386-8.401c0-4.637,3.757-8.401,8.386-8.401h83.861    c4.629,0,8.386,3.764,8.386,8.401C151.394,407.878,147.637,411.642,143.008,411.642"/>
		<path d="M201.711,470.448H17.217c-4.629,0-8.386-3.764-8.386-8.401c0-4.637,3.757-8.401,8.386-8.401h184.494    c4.629,0,8.386,3.764,8.386,8.401C210.097,466.684,206.34,470.448,201.711,470.448"/>
		<path d="M50.761,117.612H25.603c-4.629,0-8.386-3.764-8.386-8.401c0-4.637,3.757-8.401,8.386-8.401h25.158    c4.629,0,8.386,3.764,8.386,8.401C59.148,113.848,55.391,117.612,50.761,117.612"/>
		<path d="M111.691,103.002c0,4.637-3.757,8.401-8.386,8.401c-4.629,0-8.386-3.764-8.386-8.401c0-4.637,3.757-8.401,8.386-8.401    C107.934,94.601,111.691,98.365,111.691,103.002"/>
		<path d="M295.407,504.051c-9.258,0-17.971-3.612-24.521-10.173L10.607,233.132c-6.558-6.561-10.164-15.281-10.164-24.564    c0-9.275,3.606-18.003,10.164-24.564l63.055-63.174c3.279-3.276,8.587-3.276,11.858,0c3.279,3.285,3.279,8.602,0,11.879    l-63.055,63.174c-3.388,3.386-5.25,7.897-5.25,12.685c0,4.788,1.862,9.3,5.25,12.685l260.279,260.746    c6.768,6.771,18.558,6.771,25.326,0l173.525-173.831c3.38-3.394,5.241-7.897,5.241-12.685s-1.862-9.3-5.241-12.685L221.308,22.052    c-6.768-6.771-18.558-6.771-25.318,0l-63.03,63.141c-3.279,3.276-8.587,3.276-11.858,0c-3.279-3.285-3.279-8.602,0-11.879    l63.021-63.141C190.673,3.612,199.386,0,208.645,0c9.267,0,17.971,3.612,24.521,10.173l260.287,260.746    c6.549,6.561,10.155,15.281,10.155,24.564c0,9.275-3.606,18.003-10.155,24.564L319.928,493.878    C313.378,500.439,304.665,504.051,295.407,504.051"/>
	</g>
</g>
<g>
</g>
<g>
</g>
<g>
</g>
<g>
</g>
<g>
</g>
<g>
</g>
<g>
</g>
<g>
</g>
<g>
</g>
<g>
</g>
<g>
</g>
<g>
</g>
<g>
</g>
<g>
</g>
<g>
</g>
</svg>
