<?xml version="1.0" encoding="iso-8859-1"?>
<!-- Generator: Adobe Illustrator 19.0.0, SVG Export Plug-In . SVG Version: 6.00 Build 0)  -->
<svg version="1.1" id="Layer_1" xmlns="http://www.w3.org/2000/svg" xmlns:xlink="http://www.w3.org/1999/xlink" x="0px" y="0px"
	 viewBox="0 0 512 512" style="enable-background:new 0 0 512 512;" xml:space="preserve">
<path style="fill:#DE3205;" d="M317.548,0H119.39C90.703,0,67.363,23.338,67.363,52.025v402.317c0,9.281,7.524,16.805,16.806,16.805
	h257.863c9.281,0,16.806-7.524,16.806-16.805V41.29C358.837,18.523,340.315,0,317.548,0z"/>
<path style="fill:#9D2217;" d="M317.548,0H213.101v471.148h128.931c9.281,0,16.806-7.524,16.806-16.805V41.29
	C358.837,18.523,340.315,0,317.548,0z"/>
<g>
	<path style="fill:#C6C5CA;" d="M349.161,428.937H77.04c-22.767,0-41.29,18.523-41.29,41.29v24.967
		c0,9.281,7.524,16.805,16.806,16.805h321.091c9.281,0,16.806-7.524,16.806-16.805v-24.967
		C390.451,447.46,371.928,428.937,349.161,428.937z"/>
	<path style="fill:#C6C5CA;" d="M287.787,57.656H138.416c-7.735,0-14.005,6.27-14.005,14.005v81.643
		c0,7.735,6.27,14.005,14.005,14.005h149.371c7.735,0,14.005-6.27,14.005-14.005V71.661
		C301.791,63.927,295.52,57.656,287.787,57.656z"/>
</g>
<path style="fill:#9D2217;" d="M287.787,196.333H138.416c-7.735,0-14.005,6.27-14.005,14.005v81.643
	c0,7.735,6.27,14.005,14.005,14.005h149.371c7.735,0,14.005-6.27,14.005-14.005v-81.643
	C301.791,202.604,295.52,196.333,287.787,196.333z"/>
<path style="fill:#1D1D1F;" d="M386.116,374.623h-38.709c-12.376,0-22.407-10.032-22.407-22.407
	c0-12.376,10.032-22.407,22.407-22.407h38.709c24.99,0,45.319-20.33,45.319-45.32V98.518l-24.427-47.879
	c-5.624-11.023-1.247-24.519,9.776-30.143c11.026-5.624,24.519-1.246,30.143,9.776l26.875,52.676
	c1.609,3.153,2.448,6.644,2.448,10.183v191.355C476.249,334.189,435.815,374.623,386.116,374.623z"/>
<path style="fill:#9D2217;" d="M448.466,82.777c-40.614,0-73.657,33.043-73.657,73.657v54.951c0,9.281,7.524,16.806,16.806,16.806
	h56.852c9.281,0,16.806-7.524,16.806-16.806V99.583C465.272,90.302,457.748,82.777,448.466,82.777z"/>
<path style="fill:#8A8A91;" d="M287.787,57.656h-74.685v109.653h74.685c7.735,0,14.005-6.27,14.005-14.005V71.661
	C301.791,63.927,295.52,57.656,287.787,57.656z"/>
<path style="fill:#690812;" d="M287.787,196.333h-74.686v109.653h74.686c7.735,0,14.005-6.27,14.005-14.005v-81.643
	C301.791,202.604,295.52,196.333,287.787,196.333z"/>
<path style="fill:#8A8A91;" d="M349.161,428.937H213.101V512h160.545c9.281,0,16.806-7.524,16.806-16.805v-24.967
	C390.451,447.46,371.928,428.937,349.161,428.937z"/>
<path style="fill:#DE3205;" d="M421.108,88.068c-27.103,10.885-46.298,37.418-46.298,68.367v54.951
	c0,9.281,7.524,16.806,16.806,16.806h29.493V88.068z"/>
<g>
</g>
<g>
</g>
<g>
</g>
<g>
</g>
<g>
</g>
<g>
</g>
<g>
</g>
<g>
</g>
<g>
</g>
<g>
</g>
<g>
</g>
<g>
</g>
<g>
</g>
<g>
</g>
<g>
</g>
</svg>
